<svg width="24" height="15" viewBox="0 0 24 15" fill="none" xmlns="http://www.w3.org/2000/svg">
<path fill-rule="evenodd" clip-rule="evenodd" d="M21.7285 0H1.58962C0.733879 0 0.0401611 0.708368 0.0401611 1.58044V13.4196C0.0401611 14.2924 0.735621 15 1.58962 15H21.7285C22.5842 15 23.2779 14.2916 23.2779 13.4196V1.58044C23.2779 0.707589 22.5825 0 21.7285 0Z" fill="#227FBB"/>
<path fill-rule="evenodd" clip-rule="evenodd" d="M2.13645 5.39015L1.68907 4.27888L1.24424 5.39015H2.13645ZM11.9923 4.94764C11.9025 5.00322 11.7962 5.00507 11.669 5.00507H10.8749V4.38591H11.6798C11.7937 4.38591 11.9125 4.39112 11.9897 4.43619C12.0745 4.4768 12.127 4.56323 12.127 4.68263C12.127 4.80446 12.0771 4.90249 11.9923 4.94764C12.0771 4.90249 11.9923 4.94764 11.9923 4.94764ZM17.657 5.39015L17.2047 4.27888L16.7548 5.39015H17.657ZM7.09761 6.593H6.42752L6.42505 4.40979L5.47724 6.593H4.90333L3.95305 4.40785V6.593H2.6236L2.37244 5.97123H1.01147L0.757759 6.593H0.047832L1.21834 3.80542H2.18949L3.30119 6.44468V3.80542H4.36802L5.22344 5.69646L6.00925 3.80542H7.09753V6.593H7.09761ZM9.76831 6.593H7.58475V3.80542H9.76831V4.38591H8.23843V4.88837H9.73161V5.45977H8.23843V6.01646H9.76831V6.593ZM12.8471 4.55617C12.8471 5.00061 12.5561 5.23023 12.3865 5.29918C12.5295 5.35467 12.6517 5.45271 12.7098 5.53393C12.8021 5.67258 12.818 5.79643 12.818 6.04539V6.593H12.1587L12.1563 6.24146C12.1563 6.07372 12.172 5.8325 12.0531 5.69839C11.9576 5.60035 11.812 5.57908 11.5767 5.57908H10.875V6.593H10.2214V3.80542H11.7248C12.0589 3.80542 12.305 3.81442 12.5163 3.93894C12.7231 4.06346 12.8471 4.24524 12.8471 4.55617C12.8471 4.55617 12.8471 4.24524 12.8471 4.55617ZM13.8931 6.593H13.2261V3.80542H13.8931V6.593ZM21.6306 6.593H20.7043L19.4654 4.50076V6.593H18.1342L17.8798 5.97123H16.522L16.2752 6.593H15.5103C15.1926 6.593 14.7903 6.52136 14.5625 6.28468C14.3328 6.04799 14.2133 5.7274 14.2133 5.22048C14.2133 4.80706 14.2847 4.42913 14.5657 4.13048C14.777 3.908 15.1079 3.80542 15.5583 3.80542H16.1911V4.40272H15.5716C15.3331 4.40272 15.1984 4.43888 15.0686 4.56786C14.9572 4.68523 14.8807 4.90712 14.8807 5.19929C14.8807 5.49794 14.939 5.71327 15.0605 5.85394C15.1611 5.96425 15.344 5.99771 15.516 5.99771H15.8096L16.7308 3.80551H17.7102L18.8169 6.44216V3.80551H19.8121L20.9611 5.7469V3.80551H21.6306V6.593ZM0.0402436 7.14052H1.15706L1.40888 6.52136H1.97264L2.2238 7.14052H4.42122V6.66715L4.61736 7.14254H5.75809L5.95424 6.66009V7.14052H11.4152L11.4127 6.12417H11.5183C11.5923 6.12677 11.6139 6.13375 11.6139 6.25828V7.14052H14.4384V6.90392C14.6662 7.02836 15.0205 7.14052 15.4868 7.14052H16.6751L16.9294 6.52136H17.4931L17.7418 7.14052H20.0316V6.55239L20.3784 7.14052H22.2133V3.25269H20.3973V3.71184L20.143 3.25269H18.2797V3.71184L18.0462 3.25269H15.5292C15.1079 3.25269 14.7376 3.31263 14.4384 3.4797V3.25269H12.7015V3.4797C12.5111 3.30751 12.2517 3.25269 11.9633 3.25269H5.61763L5.19185 4.25685L4.75461 3.25269H2.7559V3.71184L2.53633 3.25269H0.831746L0.0401611 5.10117V7.14052H0.0402436ZM23.2902 9.19324H22.0989C21.9799 9.19324 21.9009 9.19778 21.8343 9.2436C21.7654 9.28875 21.7388 9.35576 21.7388 9.44421C21.7388 9.5494 21.7971 9.62095 21.8818 9.65189C21.9507 9.67636 22.0248 9.68351 22.1337 9.68351L22.4879 9.69317C22.8454 9.70217 23.084 9.76481 23.2295 9.91758C23.256 9.93885 23.2719 9.96273 23.2902 9.98661V9.19324ZM23.2902 11.0315C23.1314 11.2682 22.822 11.3881 22.4031 11.3881H21.1408V10.7902H22.398C22.5227 10.7902 22.61 10.7735 22.6626 10.7212C22.7081 10.6781 22.7398 10.6154 22.7398 10.5394C22.7398 10.4581 22.7081 10.3936 22.66 10.355C22.6126 10.3124 22.5435 10.2931 22.4297 10.2931C21.816 10.2718 21.0503 10.3124 21.0503 9.43009C21.0503 9.02567 21.3022 8.59997 21.9881 8.59997H23.2901V8.04522H22.0804C21.7153 8.04522 21.4501 8.13434 21.2623 8.2729V8.04522H19.473C19.1869 8.04522 18.851 8.11752 18.6922 8.2729V8.04522H15.497V8.2729C15.2427 8.08591 14.8136 8.04522 14.6156 8.04522H12.508V8.2729C12.3068 8.07431 11.8594 8.04522 11.5867 8.04522H9.22797L8.6882 8.64067L8.18267 8.04522H4.65918V11.9357H8.11635L8.67253 11.3309L9.19646 11.9357L11.3275 11.9377V11.0225H11.537C11.8197 11.0269 12.1532 11.0153 12.4474 10.8857V11.9357H14.2051V10.9217H14.2899C14.3981 10.9217 14.4088 10.9262 14.4088 11.0364V11.9356H19.7484C20.0874 11.9356 20.4417 11.8471 20.6379 11.6866V11.9356H22.3316C22.6841 11.9356 23.0283 11.8852 23.2902 11.7562V11.0315ZM20.6828 9.91758C20.8101 10.0519 20.8783 10.2214 20.8783 10.5083C20.8783 11.1081 20.5107 11.3881 19.8515 11.3881H18.5783V10.7902H19.8464C19.9703 10.7902 20.0583 10.7735 20.1133 10.7212C20.1583 10.6781 20.1906 10.6154 20.1906 10.5394C20.1906 10.4581 20.1557 10.3936 20.1108 10.355C20.0608 10.3124 19.9919 10.2931 19.878 10.2931C19.2667 10.2718 18.5012 10.3124 18.5012 9.43009C18.5012 9.02567 18.7505 8.59997 19.4358 8.59997H20.7462V9.19341H19.5471C19.4282 9.19341 19.351 9.19795 19.2852 9.24377C19.2136 9.28892 19.1871 9.35593 19.1871 9.44438C19.1871 9.54957 19.2479 9.62112 19.3301 9.65206C19.399 9.67653 19.4731 9.68367 19.5845 9.68367L19.9363 9.69334C20.2912 9.70217 20.5348 9.76473 20.6828 9.91758C20.6828 9.91758 20.5348 9.76473 20.6828 9.91758ZM14.7846 9.74539C14.6972 9.79827 14.5891 9.80281 14.4619 9.80281H13.6678V9.17659H14.4727C14.5891 9.17659 14.7055 9.17911 14.7846 9.22695C14.8694 9.2721 14.92 9.35845 14.92 9.47776C14.92 9.59707 14.8694 9.69317 14.7846 9.74539C14.8694 9.69317 14.7846 9.74539 14.7846 9.74539ZM15.1794 10.0924C15.3249 10.1471 15.4438 10.2452 15.4996 10.3265C15.5919 10.4626 15.6053 10.5896 15.6079 10.8354V11.3881H14.9517V11.0393C14.9517 10.8715 14.9675 10.6232 14.846 10.4935C14.7505 10.3936 14.6049 10.3698 14.3665 10.3698H13.6679V11.3881H13.0111V8.59989H14.5202C14.8511 8.59989 15.0921 8.61477 15.3067 8.73147C15.513 8.85852 15.6427 9.03256 15.6427 9.35063C15.6426 9.79567 15.3515 10.0228 15.1794 10.0924C15.3515 10.0228 15.1794 10.0924 15.1794 10.0924ZM16.0051 8.59989H18.1867V9.17651H16.6561V9.68342H18.1494V10.2523H16.6561V10.8071L18.1867 10.8096V11.3881H16.0051V8.59989ZM11.5951 9.88664H10.7503V9.17659H11.6026C11.8386 9.17659 12.0024 9.27463 12.0024 9.51846C12.0024 9.7596 11.8462 9.88664 11.5951 9.88664ZM10.0993 11.1345L9.09575 9.9988L10.0993 8.89913V11.1345ZM7.50763 10.8071H5.90054V10.2523H7.33557V9.68342H5.90054V9.17651H7.5393L8.25426 9.98905L7.50763 10.8071ZM12.7042 9.51846C12.7042 10.293 12.1373 10.4529 11.5659 10.4529H10.7503V11.3881H9.47987L8.67501 10.4651L7.83855 11.3881H5.24943V8.59989H7.87839L8.68259 9.51383L9.51402 8.59989H11.6026C12.1214 8.59989 12.7042 8.74627 12.7042 9.51846C12.7042 9.51846 12.7042 8.74627 12.7042 9.51846Z" fill="white"/>
</svg>
