<svg width="12" height="12" viewBox="0 0 12 12" fill="none" xmlns="http://www.w3.org/2000/svg">
<path d="M10.4217 12H0.82168C0.66255 12 0.509937 11.9368 0.397416 11.8243C0.284894 11.7117 0.22168 11.5591 0.22168 11.4V0.6C0.22168 0.44087 0.284894 0.288258 0.397416 0.175736C0.509937 0.0632141 0.66255 0 0.82168 0H10.4217C10.5808 0 10.7334 0.0632141 10.8459 0.175736C10.9585 0.288258 11.0217 0.44087 11.0217 0.6V11.4C11.0217 11.5591 10.9585 11.7117 10.8459 11.8243C10.7334 11.9368 10.5808 12 10.4217 12ZM3.82168 2.4H2.62168V3.6C2.62168 4.39565 2.93775 5.15871 3.50036 5.72132C4.06297 6.28393 4.82603 6.6 5.62168 6.6C6.41733 6.6 7.18039 6.28393 7.743 5.72132C8.30561 5.15871 8.62168 4.39565 8.62168 3.6V2.4H7.42168V3.6C7.42168 4.07739 7.23204 4.53523 6.89447 4.87279C6.55691 5.21036 6.09907 5.4 5.62168 5.4C5.14429 5.4 4.68645 5.21036 4.34889 4.87279C4.01132 4.53523 3.82168 4.07739 3.82168 3.6V2.4Z" fill="#023047"/>
</svg>
