<svg width="14" height="17" viewBox="0 0 14 17" fill="none" xmlns="http://www.w3.org/2000/svg">
<path d="M4.53928 16.6178C2.5462 15.873 0.869596 14.7766 0.339995 12.5157C0.0305888 11.1933 0.366192 9.93262 0.904998 8.72575C1.11316 8.25935 1.33902 7.79368 1.61798 7.36819C2.07253 6.67506 2.43079 5.94678 2.62054 5.13597C2.68568 4.7564 2.714 4.37755 2.6085 4.00013C2.53912 3.94632 2.53699 3.85232 2.57452 3.80927C2.66585 3.70523 2.7494 3.82434 2.81595 3.8638C3.98915 4.5555 4.53645 5.78892 4.28085 7.1436C4.2766 7.16657 4.28014 7.19096 4.28014 7.21392C4.79629 6.71811 5.17579 5.13023 5.10358 3.64065C5.04127 2.35485 4.61575 1.1695 4.04508 0.0408373C4.11518 -0.0359377 4.16969 0.0150064 4.2143 0.0372497C5.6877 0.780604 7.00533 1.73061 8.02346 3.05874C8.88584 4.1831 9.34534 5.44666 9.23631 6.90682C9.88981 5.24432 10.8343 3.86237 12.615 3.18574C12.501 3.61913 12.3913 4.003 12.2992 4.39118C12.045 5.46101 12.0542 6.4842 12.5208 7.5325C13.2027 9.0637 13.5106 10.6889 13.3237 12.3851C13.0872 14.5298 11.6889 16.2016 9.62926 16.9421C9.27737 16.927 8.92549 16.9428 8.5736 16.9342C8.49855 16.9321 8.3881 16.9751 8.36332 16.8668C8.34349 16.7807 8.42279 16.7161 8.49218 16.6694C8.72724 16.5116 8.95805 16.3523 9.14568 16.1313C9.78432 15.3779 9.77228 14.4989 9.63705 13.5956C9.61085 13.4198 9.55846 13.2476 9.50465 13.0775C9.18816 12.3578 9.04089 11.621 9.34039 10.8453C9.14639 10.8209 9.06638 10.935 8.96584 11.0053C8.60617 11.2399 8.39447 11.5994 8.17781 11.9553C8.124 12.0436 8.08506 12.1792 7.96116 12.1569C7.86133 12.139 7.85849 12.0091 7.83442 11.9187C7.50448 10.691 6.93948 9.99504 5.70469 9.33779C5.87249 9.70947 5.98507 10.0489 6.05728 10.4012C6.17765 10.9888 6.13587 11.5643 5.92488 12.1247C5.88453 12.2316 5.83921 12.3909 5.7061 12.3708C5.56662 12.3492 5.59211 12.1828 5.5822 12.0701C5.54467 11.6525 5.3436 11.3311 4.98463 11.0218C5.03277 11.7436 4.68443 12.2725 4.36228 12.8199C4.10102 13.2634 3.93251 13.747 3.89994 14.2722C3.86312 14.8584 4.00402 15.3822 4.41255 15.8156C4.55911 15.9706 4.71912 16.1127 4.84019 16.292C4.89329 16.3925 5.03206 16.4958 4.95489 16.602C4.84869 16.7498 4.68159 16.6393 4.53928 16.6178Z" fill="#E40D0E"/>
<path d="M9.56976 13.0216C9.92661 14.1324 10.0024 15.2108 9.22354 16.1945C8.9991 16.478 8.68261 16.6408 8.40294 16.9422C8.81289 16.9422 9.22283 16.9422 9.63136 16.9422C8.25142 16.9551 6.87291 17.0132 5.49509 16.935C5.57439 16.7384 5.70892 16.892 5.78892 16.8633C5.40659 16.8016 5.04833 16.6215 4.76512 16.3022C4.1541 15.7949 3.74061 15.1857 3.79513 14.3412C3.83761 13.6811 4.07055 13.0841 4.42386 12.5388C4.74813 12.0386 4.97399 11.5184 4.86354 10.844C5.44553 11.2063 5.72378 11.6705 5.71812 12.3142C6.24135 11.2544 6.04169 10.2312 5.54961 9.21948C6.52951 9.35222 7.68147 10.7335 7.97954 12.147C8.2316 11.6763 8.46525 11.2192 8.91342 10.9394C9.30355 10.8397 9.35169 10.8755 9.26531 11.2357C9.11167 11.8772 9.24761 12.4648 9.56976 13.0216Z" fill="#EDE41C"/>
</svg>
