<svg width="34" height="10" viewBox="0 0 34 10" fill="none" xmlns="http://www.w3.org/2000/svg">
<path d="M12.6879 9.73824L14.3633 0.314209H16.9811L15.3581 9.73824H12.6879Z" fill="#3C58BF"/>
<path d="M12.6879 9.73824L14.8345 0.314209H16.9811L15.3581 9.73824H12.6879Z" fill="#293688"/>
<path d="M24.8345 0.418847C24.3109 0.209424 23.4732 0 22.4261 0C19.8083 0 17.9235 1.30889 17.9235 3.1937C17.9235 4.60731 19.2324 5.34029 20.2795 5.81149C21.3266 6.28269 21.6408 6.59682 21.6408 7.01567C21.6408 7.64394 20.8031 7.95807 20.0701 7.95807C19.023 7.95807 18.4471 7.80101 17.557 7.43452L17.1905 7.27745L16.824 9.42404C17.4523 9.68581 18.6041 9.94759 19.8083 9.94759C22.5832 9.94759 24.4156 8.6387 24.4156 6.64918C24.4156 5.54971 23.735 4.71202 22.1643 4.03139C21.2219 3.56019 20.646 3.29841 20.646 2.82721C20.646 2.40836 21.1172 1.98952 22.1643 1.98952C23.0544 1.98952 23.6826 2.14659 24.1538 2.35601L24.4156 2.46072L24.8345 0.418847Z" fill="#3C58BF"/>
<path d="M24.8345 0.418847C24.3109 0.209424 23.4732 0 22.4261 0C19.8083 0 18.3947 1.30889 18.3947 3.1937C18.3947 4.60731 19.2324 5.34029 20.2795 5.81149C21.3266 6.28269 21.6408 6.59682 21.6408 7.01567C21.6408 7.64394 20.8031 7.95807 20.0701 7.95807C19.023 7.95807 18.4471 7.80101 17.557 7.43452L17.1905 7.27745L16.824 9.42404C17.4523 9.68581 18.6041 9.94759 19.8083 9.94759C22.5832 9.94759 24.4156 8.6387 24.4156 6.64918C24.4156 5.54971 23.735 4.71202 22.1643 4.03139C21.2219 3.56019 20.646 3.29841 20.646 2.82721C20.646 2.40836 21.1172 1.98952 22.1643 1.98952C23.0544 1.98952 23.6826 2.14659 24.1538 2.35601L24.4156 2.46072L24.8345 0.418847Z" fill="#293688"/>
<path d="M29.3371 0.314209C28.7088 0.314209 28.2376 0.366564 27.9758 0.994833L24.0491 9.73824H26.8763L27.3999 8.16757H30.7507L31.0648 9.73824H33.5779L31.3789 0.314209H29.3371ZM28.1329 6.5969C28.2899 6.1257 29.18 3.82204 29.18 3.82204C29.18 3.82204 29.3894 3.24613 29.5465 2.87964L29.7036 3.76969C29.7036 3.76969 30.2271 6.1257 30.3318 6.64925H28.1329V6.5969Z" fill="#3C58BF"/>
<path d="M29.9653 0.314209C29.3371 0.314209 28.8659 0.366564 28.6041 0.994833L24.0491 9.73824H26.8763L27.3999 8.16757H30.7507L31.0648 9.73824H33.5779L31.3789 0.314209H29.9653ZM28.1329 6.5969C28.3423 6.07334 29.18 3.82204 29.18 3.82204C29.18 3.82204 29.3894 3.24613 29.5465 2.87964L29.7036 3.76969C29.7036 3.76969 30.2271 6.1257 30.3318 6.64925H28.1329V6.5969Z" fill="#293688"/>
<path d="M7.8712 6.91117L7.60942 5.54992C7.13822 3.97925 5.6199 2.25151 3.94452 1.41381L6.30053 9.79073H9.12774L13.3686 0.366699H10.5413L7.8712 6.91117Z" fill="#3C58BF"/>
<path d="M7.8712 6.91117L7.60942 5.54992C7.13822 3.97925 5.6199 2.25151 3.94452 1.41381L6.30053 9.79073H9.12774L13.3686 0.366699H11.0649L7.8712 6.91117Z" fill="#293688"/>
<path d="M0.59375 0.314209L1.06495 0.418921C4.41572 1.20426 6.71937 3.19378 7.60942 5.54978L6.66702 1.09955C6.50995 0.471276 6.03875 0.314209 5.46284 0.314209H0.59375Z" fill="#FFBC00"/>
<path d="M0.59375 0.314209C3.94452 1.09955 6.71937 3.14142 7.60942 5.49743L6.71937 1.78017C6.56231 1.1519 6.03875 0.785411 5.46284 0.785411L0.59375 0.314209Z" fill="#F7981D"/>
<path d="M0.59375 0.314209C3.94452 1.09955 6.71937 3.14142 7.60942 5.49743L6.98115 3.45555C6.82408 2.82729 6.61466 2.19902 5.88168 1.93724L0.59375 0.314209Z" fill="#ED7C00"/>
<path d="M10.489 6.5969L8.70891 4.81681L7.87121 6.80633L7.66179 5.49743C7.19059 3.92676 5.67227 2.19902 3.99689 1.36133L6.3529 9.73825H9.18011L10.489 6.5969ZM15.3581 9.73825L13.1068 7.43459L12.6879 9.73825H15.3581ZM21.379 6.49219C21.5884 6.70161 21.6931 6.85868 21.6408 7.06811C21.6408 7.69638 20.8031 8.01051 20.0701 8.01051C19.023 8.01051 18.4471 7.85344 17.557 7.48695L17.1905 7.32989L16.824 9.47647C17.4523 9.73825 18.6041 10 19.8083 10C21.4837 10 22.845 9.52883 23.6303 8.69113L21.379 6.49219ZM24.4156 9.73825H26.8764L27.3999 8.16758H30.7507L31.0648 9.73825H33.5779L32.6878 5.91628L29.5465 2.87964L29.7036 3.71734C29.7036 3.71734 30.2271 6.07335 30.3318 6.5969H28.1329C28.3423 6.07335 29.18 3.82205 29.18 3.82205C29.18 3.82205 29.3894 3.24614 29.5465 2.87964" fill="#051244"/>
</svg>
