<svg width="16" height="16" viewBox="0 0 16 16" fill="none" xmlns="http://www.w3.org/2000/svg">
<path fill-rule="evenodd" clip-rule="evenodd" d="M5.11471 0.408281C5.91448 0.371463 6.16948 0.363281 8.20676 0.363281C10.244 0.363281 10.499 0.372145 11.2981 0.408281C12.0972 0.444418 12.6427 0.571918 13.1199 0.75669C13.6197 0.945554 14.0731 1.24078 14.4481 1.6226C14.8299 1.99692 15.1245 2.44965 15.3127 2.9501C15.4981 3.42737 15.6249 3.97283 15.6618 4.77055C15.6986 5.57169 15.7068 5.82669 15.7068 7.86328C15.7068 9.90055 15.6979 10.1556 15.6618 10.9553C15.6256 11.7531 15.4981 12.2985 15.3127 12.7758C15.1245 13.2763 14.8294 13.7298 14.4481 14.1046C14.0731 14.4865 13.6197 14.781 13.1199 14.9692C12.6427 15.1546 12.0972 15.2815 11.2995 15.3183C10.499 15.3551 10.244 15.3633 8.20676 15.3633C6.16948 15.3633 5.91448 15.3544 5.11471 15.3183C4.31698 15.2821 3.77153 15.1546 3.29426 14.9692C2.79375 14.781 2.34027 14.486 1.96539 14.1046C1.58383 13.7301 1.28856 13.2768 1.10017 12.7765C0.915393 12.2992 0.788575 11.7537 0.751757 10.956C0.714938 10.1549 0.706757 9.89987 0.706757 7.86328C0.706757 5.82601 0.71562 5.57101 0.751757 4.77192C0.787893 3.97283 0.915393 3.42737 1.10017 2.9501C1.28884 2.4497 1.58434 1.99645 1.96607 1.62192C2.34042 1.24044 2.79344 0.945175 3.29357 0.75669C3.77085 0.571918 4.3163 0.445099 5.11403 0.408281H5.11471ZM11.2374 1.75828C10.4465 1.72214 10.2093 1.71465 8.20676 1.71465C6.20426 1.71465 5.96698 1.72214 5.17607 1.75828C4.44448 1.79169 4.04767 1.91374 3.78312 2.01669C3.43335 2.15305 3.18312 2.31465 2.92062 2.57715C2.67179 2.81923 2.48029 3.11393 2.36017 3.43965C2.25721 3.70419 2.13517 4.10101 2.10176 4.8326C2.06562 5.62351 2.05812 5.86078 2.05812 7.86328C2.05812 9.86578 2.06562 10.1031 2.10176 10.894C2.13517 11.6256 2.25721 12.0224 2.36017 12.2869C2.48017 12.6121 2.67176 12.9074 2.92062 13.1494C3.16267 13.3983 3.45789 13.5899 3.78312 13.7099C4.04767 13.8128 4.44448 13.9349 5.17607 13.9683C5.96698 14.0044 6.20357 14.0119 8.20676 14.0119C10.2099 14.0119 10.4465 14.0044 11.2374 13.9683C11.969 13.9349 12.3658 13.8128 12.6304 13.7099C12.9802 13.5735 13.2304 13.4119 13.4929 13.1494C13.7418 12.9074 13.9333 12.6121 14.0533 12.2869C14.1563 12.0224 14.2783 11.6256 14.3118 10.894C14.3479 10.1031 14.3554 9.86578 14.3554 7.86328C14.3554 5.86078 14.3479 5.62351 14.3118 4.8326C14.2783 4.10101 14.1563 3.70419 14.0533 3.43965C13.917 3.08987 13.7554 2.83965 13.4929 2.57715C13.2508 2.32833 12.9561 2.13683 12.6304 2.01669C12.3658 1.91374 11.969 1.79169 11.2374 1.75828ZM7.2488 10.1753C7.7838 10.398 8.37951 10.4281 8.93421 10.2604C9.4889 10.0926 9.96816 9.73754 10.2901 9.25572C10.6121 8.7739 10.7568 8.19524 10.6995 7.61858C10.6422 7.04192 10.3865 6.50304 9.97608 6.09396C9.71442 5.83247 9.39804 5.63224 9.04971 5.5077C8.70138 5.38316 8.32978 5.33739 7.96164 5.3737C7.5935 5.41001 7.238 5.52749 6.92071 5.71769C6.60343 5.90788 6.33226 6.16606 6.12674 6.47363C5.92121 6.78121 5.78643 7.13052 5.73211 7.49644C5.67779 7.86235 5.70527 8.23575 5.81258 8.58977C5.91989 8.94379 6.10436 9.26961 6.3527 9.54377C6.60105 9.81794 6.90709 10.0336 7.2488 10.1753ZM5.48085 5.13737C5.83882 4.7794 6.26379 4.49544 6.73151 4.30171C7.19922 4.10798 7.70051 4.00826 8.20676 4.00826C8.71301 4.00826 9.2143 4.10798 9.68201 4.30171C10.1497 4.49544 10.5747 4.7794 10.9327 5.13737C11.2906 5.49534 11.5746 5.92032 11.7683 6.38803C11.9621 6.85574 12.0618 7.35703 12.0618 7.86328C12.0618 8.36953 11.9621 8.87082 11.7683 9.33853C11.5746 9.80624 11.2906 10.2312 10.9327 10.5892C10.2097 11.3121 9.22917 11.7183 8.20676 11.7183C7.18434 11.7183 6.2038 11.3121 5.48085 10.5892C4.75789 9.86623 4.35174 8.8857 4.35174 7.86328C4.35174 6.84087 4.75789 5.86033 5.48085 5.13737ZM12.9168 4.58237C13.0055 4.49869 13.0765 4.39806 13.1256 4.28645C13.1747 4.17483 13.2009 4.05449 13.2027 3.93255C13.2045 3.81062 13.1818 3.68956 13.1359 3.57656C13.0901 3.46356 13.0221 3.3609 12.9358 3.27467C12.8496 3.18844 12.7469 3.12039 12.6339 3.07454C12.5209 3.0287 12.3999 3.00599 12.2779 3.00777C12.156 3.00955 12.0357 3.03577 11.924 3.08489C11.8124 3.13401 11.7118 3.20503 11.6281 3.29374C11.4654 3.46626 11.3763 3.69541 11.3797 3.93255C11.3832 4.16969 11.4789 4.39615 11.6466 4.56386C11.8143 4.73156 12.0408 4.8273 12.2779 4.83076C12.5151 4.83422 12.7442 4.74512 12.9168 4.58237Z" fill="#666666"/>
</svg>
