<svg width="16" height="16" viewBox="0 0 16 16" fill="none" xmlns="http://www.w3.org/2000/svg">
<path fill-rule="evenodd" clip-rule="evenodd" d="M0.706757 1.61646C0.706757 1.2841 0.838788 0.965348 1.07381 0.730331C1.30882 0.495314 1.62757 0.363283 1.95994 0.363283H14.4522C14.6169 0.363014 14.7801 0.395235 14.9323 0.458101C15.0845 0.520967 15.2229 0.613244 15.3394 0.729649C15.456 0.846053 15.5484 0.984299 15.6114 1.13647C15.6744 1.28864 15.7068 1.45175 15.7068 1.61646V14.1087C15.7069 14.2735 15.6746 14.4366 15.6117 14.5889C15.5487 14.7411 15.4564 14.8795 15.3399 14.996C15.2235 15.1125 15.0852 15.2049 14.933 15.268C14.7808 15.331 14.6176 15.3634 14.4529 15.3633H1.95994C1.79531 15.3633 1.6323 15.3308 1.48021 15.2678C1.32812 15.2048 1.18994 15.1124 1.07356 14.996C0.957186 14.8796 0.864892 14.7413 0.801954 14.5892C0.739016 14.4371 0.706667 14.274 0.706757 14.1094V1.61646ZM6.64403 6.08237H8.67517V7.10237C8.96835 6.51601 9.71835 5.98828 10.8454 5.98828C13.0061 5.98828 13.5181 7.15624 13.5181 9.29919V13.2687H11.3315V9.78737C11.3315 8.56692 11.0383 7.87828 10.2938 7.87828C9.26085 7.87828 8.8313 8.62078 8.8313 9.78737V13.2687H6.64403V6.08237ZM2.89403 13.1753H5.0813V5.98828H2.89403V13.1746V13.1753ZM5.39426 3.64419C5.39838 3.83147 5.36506 4.01768 5.29624 4.19191C5.22742 4.36613 5.1245 4.52485 4.99351 4.65876C4.86251 4.79267 4.7061 4.89906 4.53343 4.9717C4.36076 5.04433 4.17533 5.08175 3.98801 5.08175C3.80068 5.08175 3.61525 5.04433 3.44258 4.9717C3.26992 4.89906 3.1135 4.79267 2.98251 4.65876C2.85152 4.52485 2.74859 4.36613 2.67978 4.19191C2.61096 4.01768 2.57763 3.83147 2.58176 3.64419C2.58985 3.27659 2.74156 2.92678 3.00441 2.66966C3.26725 2.41254 3.62032 2.26857 3.98801 2.26857C4.3557 2.26857 4.70877 2.41254 4.97161 2.66966C5.23445 2.92678 5.38616 3.27659 5.39426 3.64419Z" fill="#023047"/>
</svg>
