<svg width="51" height="50" viewBox="0 0 51 50" fill="none" xmlns="http://www.w3.org/2000/svg">
<path d="M12.9005 49.8226C10.9665 49.801 9.05077 49.4463 7.2373 48.774C5.91302 48.2845 4.71488 47.5052 3.73047 46.4932C2.71566 45.5107 1.93523 44.3123 1.44716 42.9868C0.775475 41.1734 0.421277 39.2578 0.400109 37.3241C0.251581 34.1095 0.22168 33.1453 0.22168 24.9998C0.22168 16.8542 0.254523 15.8935 0.398639 12.6763C0.422375 10.7434 0.777009 8.82882 1.44716 7.01562C1.93761 5.69112 2.71693 4.4925 3.72851 3.50683C4.7117 2.49293 5.9104 1.71323 7.23583 1.22548C9.0493 0.553238 10.9651 0.198541 12.899 0.176959C16.1147 0.0299017 17.0803 0 25.2214 0C33.3625 0 34.3277 0.0328428 37.5448 0.176959C39.4783 0.200528 41.3934 0.555164 43.207 1.22548C44.5319 1.71387 45.7303 2.4933 46.7139 3.50634C47.7272 4.49027 48.507 5.68896 48.9957 7.01415C49.6681 8.82759 50.023 10.7434 50.0447 12.6773C50.1918 15.8945 50.2217 16.8577 50.2217 25.0007C50.2217 33.1438 50.1918 34.107 50.0447 37.3241C50.0214 39.2578 49.6666 41.1731 48.9957 42.9868C48.4883 44.3021 47.711 45.4965 46.7141 46.4933C45.7171 47.49 44.5224 48.2669 43.207 48.774C41.3936 49.4464 39.4778 49.8013 37.5439 49.823C34.3297 49.9701 33.3635 50 25.2205 50C17.0774 50 16.1142 49.9716 12.9 49.823" fill="url(#paint0_radial_306_109)"/>
<path d="M12.9005 49.8226C10.9665 49.801 9.05077 49.4463 7.2373 48.774C5.91302 48.2845 4.71488 47.5052 3.73047 46.4932C2.71566 45.5107 1.93523 44.3123 1.44716 42.9868C0.775475 41.1734 0.421277 39.2578 0.400109 37.3241C0.251581 34.1095 0.22168 33.1453 0.22168 24.9998C0.22168 16.8542 0.254523 15.8935 0.398639 12.6763C0.422375 10.7434 0.777009 8.82882 1.44716 7.01562C1.93761 5.69112 2.71693 4.4925 3.72851 3.50683C4.7117 2.49293 5.9104 1.71323 7.23583 1.22548C9.0493 0.553238 10.9651 0.198541 12.899 0.176959C16.1147 0.0299017 17.0803 0 25.2214 0C33.3625 0 34.3277 0.0328428 37.5448 0.176959C39.4783 0.200528 41.3934 0.555164 43.207 1.22548C44.5319 1.71387 45.7303 2.4933 46.7139 3.50634C47.7272 4.49027 48.507 5.68896 48.9957 7.01415C49.6681 8.82759 50.023 10.7434 50.0447 12.6773C50.1918 15.8945 50.2217 16.8577 50.2217 25.0007C50.2217 33.1438 50.1918 34.107 50.0447 37.3241C50.0214 39.2578 49.6666 41.1731 48.9957 42.9868C48.4883 44.3021 47.711 45.4965 46.7141 46.4933C45.7171 47.49 44.5224 48.2669 43.207 48.774C41.3936 49.4464 39.4778 49.8013 37.5439 49.823C34.3297 49.9701 33.3635 50 25.2205 50C17.0774 50 16.1142 49.9716 12.9 49.823" fill="url(#paint1_radial_306_109)"/>
<path d="M19.0827 25.1063C19.0828 23.8817 19.4461 22.6846 20.1265 21.6665C20.807 20.6483 21.774 19.8548 22.9055 19.3863C24.0369 18.9177 25.2819 18.7953 26.4829 19.0343C27.684 19.2733 28.7872 19.8632 29.653 20.7292C30.5188 21.5952 31.1084 22.6986 31.3471 23.8997C31.5859 25.1008 31.4631 26.3457 30.9943 27.477C30.5255 28.6083 29.7318 29.5752 28.7134 30.2554C27.6951 30.9356 26.498 31.2986 25.2734 31.2984C23.6313 31.2981 22.0566 30.6456 20.8957 29.4844C19.7347 28.3232 19.0826 26.7483 19.0827 25.1063ZM15.7352 25.1063C15.7352 26.9928 16.2946 28.8369 17.3427 30.4054C18.3908 31.974 19.8804 33.1965 21.6233 33.9184C23.3661 34.6403 25.2839 34.8292 27.1342 34.4612C28.9844 34.0931 30.6839 33.1847 32.0179 31.8508C33.3518 30.5169 34.2602 28.8173 34.6282 26.9671C34.9963 25.1169 34.8074 23.1991 34.0855 21.4562C33.3635 19.7133 32.141 18.2237 30.5725 17.1756C29.0039 16.1276 27.1598 15.5682 25.2734 15.5682C24.0208 15.5681 22.7805 15.8148 21.6232 16.2941C20.466 16.7734 19.4144 17.476 18.5287 18.3617C17.643 19.2474 16.9405 20.2989 16.4611 21.4561C15.9818 22.6134 15.7352 23.8537 15.7352 25.1063ZM32.9601 15.1902C32.9599 15.6311 33.0904 16.0621 33.3352 16.4287C33.5799 16.7953 33.9279 17.0812 34.3351 17.2501C34.7423 17.4189 35.1904 17.4633 35.6228 17.3775C36.0552 17.2917 36.4525 17.0795 36.7643 16.768C37.0762 16.4564 37.2886 16.0593 37.3748 15.627C37.461 15.1947 37.4171 14.7465 37.2486 14.3391C37.08 13.9318 36.7945 13.5836 36.4281 13.3385C36.0616 13.0934 35.6308 12.9625 35.1899 12.9623C34.599 12.9626 34.0324 13.1974 33.6145 13.6151C33.1966 14.0328 32.9615 14.5993 32.961 15.1902H32.9601ZM17.77 40.2263C16.5921 40.2133 15.4253 39.9978 14.3205 39.589C13.5193 39.2802 12.7917 38.8071 12.1844 38.2C11.5772 37.593 11.1037 36.8656 10.7946 36.0645C10.3856 34.9598 10.1701 33.7929 10.1573 32.615C10.0671 30.6572 10.0495 30.069 10.0495 25.1088C10.0495 20.1485 10.0691 19.5618 10.1573 17.602C10.1716 16.4242 10.3871 15.2576 10.7946 14.1525C11.1034 13.3511 11.5767 12.6232 12.184 12.0159C12.7913 11.4086 13.5191 10.9353 14.3205 10.6265C15.4252 10.2176 16.5921 10.0021 17.77 9.9893C19.7278 9.89911 20.3161 9.88146 25.2743 9.88146C30.2326 9.88146 30.8213 9.90058 32.7811 9.98979C33.9589 10.0041 35.1255 10.2196 36.2306 10.627C37.032 10.9358 37.7598 11.4092 38.3671 12.0165C38.9744 12.6238 39.4477 13.3516 39.7566 14.153C40.1655 15.2577 40.381 16.4246 40.3938 17.6025C40.484 19.5632 40.5016 20.1485 40.5016 25.1093C40.5016 30.07 40.4835 30.6563 40.3938 32.616C40.3801 33.7938 40.1645 34.9605 39.7566 36.0655C39.4474 36.8666 38.974 37.594 38.3667 38.201C37.7594 38.808 37.0318 39.2812 36.2306 39.59C35.1259 39.9989 33.959 40.2145 32.7811 40.2272C30.8233 40.3174 30.2351 40.3351 25.2743 40.3351C20.3136 40.3351 19.7273 40.3169 17.77 40.2272V40.2263ZM17.6161 6.64473C16.0748 6.67503 14.5499 6.96674 13.1063 7.50745C11.8723 7.98459 10.7515 8.71434 9.81598 9.6499C8.88042 10.5855 8.15067 11.7062 7.67353 12.9402C7.13289 14.3839 6.84118 15.9088 6.8108 17.45C6.71914 19.4304 6.69855 20.0637 6.69855 25.1083C6.69855 30.1528 6.71963 30.7857 6.8108 32.7665C6.84117 34.3078 7.13288 35.8327 7.67353 37.2763C8.15069 38.5103 8.88045 39.631 9.81601 40.5666C10.7516 41.5022 11.8723 42.2319 13.1063 42.7091C14.55 43.2495 16.0749 43.5413 17.6161 43.5718C19.5974 43.662 20.2298 43.6841 25.2743 43.6841C30.3189 43.6841 30.9517 43.663 32.9326 43.5718C34.4738 43.5414 35.9987 43.2497 37.4424 42.7091C38.6764 42.2319 39.7971 41.5022 40.7327 40.5666C41.6682 39.631 42.398 38.5103 42.8752 37.2763C43.4165 35.8329 43.7083 34.3078 43.7379 32.7665C43.8281 30.7847 43.8487 30.1528 43.8487 25.1083C43.8487 20.0637 43.8276 19.4309 43.7379 17.45C43.7076 15.9088 43.4159 14.3838 42.8752 12.9402C42.398 11.7064 41.6684 10.5859 40.7332 9.65033C39.7979 8.7148 38.6775 7.98492 37.4438 7.50745C36.0003 6.96639 34.4754 6.67467 32.9341 6.64473C30.9532 6.55404 30.3204 6.53247 25.2768 6.53247C20.2332 6.53247 19.5989 6.55355 17.6171 6.64473" fill="white"/>
<defs>
<radialGradient id="paint0_radial_306_109" cx="0" cy="0" r="1" gradientUnits="userSpaceOnUse" gradientTransform="translate(3.45743 48.9044) scale(63.4808)">
<stop offset="0.09" stop-color="#FA8F21"/>
<stop offset="0.78" stop-color="#D82D7E"/>
</radialGradient>
<radialGradient id="paint1_radial_306_109" cx="0" cy="0" r="1" gradientUnits="userSpaceOnUse" gradientTransform="translate(34.8547 47.2986) scale(55.8637)">
<stop offset="0.64" stop-color="#8C3AAA" stop-opacity="0"/>
<stop offset="1" stop-color="#8C3AAA"/>
</radialGradient>
</defs>
</svg>
