<svg width="25" height="15" viewBox="0 0 25 15" fill="none" xmlns="http://www.w3.org/2000/svg">
<path d="M22.5995 0H2.0185C1.22287 0 0.577881 0.644986 0.577881 1.44062V13.5594C0.577881 14.355 1.22287 15 2.0185 15H22.5995C23.3951 15 24.0401 14.355 24.0401 13.5594V1.44062C24.0401 0.644986 23.3951 0 22.5995 0Z" fill="url(#paint0_linear_306_10)"/>
<path fill-rule="evenodd" clip-rule="evenodd" d="M6.83531 7.35678L6.93978 6.94439C7.34117 6.82342 8.16045 6.76844 8.31441 7.20282C8.40239 7.45575 8.14946 8.50597 8.09997 8.81389L7.70957 8.81939C7.6216 8.70942 7.69308 8.91287 7.63259 8.64344C7.25869 8.97885 6.46141 8.92386 6.52189 8.24754C6.58237 7.57672 7.16522 7.6647 7.79755 7.56573C7.78655 7.13684 7.2477 7.25231 6.82981 7.35128L6.83531 7.35678ZM9.77702 7.2908C9.41962 7.2908 9.36463 7.21382 9.05121 7.35128C9.0897 7.74168 9.29315 7.58772 9.57358 7.77467C10.1069 8.12658 9.53509 9.21529 8.26492 8.74791L8.33641 8.35202C8.69381 8.4235 8.87526 8.49498 9.15019 8.34102C9.21617 7.78567 8.23193 8.14857 8.50686 7.25781C8.65532 6.77394 9.30965 6.83992 9.8485 6.88941L9.77152 7.2908H9.77702ZM4.30048 6.44952L5.14176 6.47702L5.22973 7.79666L5.68611 6.74095C5.84007 6.36155 5.7356 6.44402 6.70334 6.45502L6.26896 8.81389L5.79608 8.80839L6.05451 7.11485L5.3562 8.81939L4.78985 8.8029C4.77336 8.47298 4.74586 7.31279 4.65789 7.09285L4.37196 8.80839L3.87709 8.8029L4.30048 6.44952ZM12.3228 11.4587L12.5538 11.1838C12.0919 11.1233 12.0094 11.2552 11.8005 10.8813L12.8617 10.8703C12.9277 10.7604 13.0377 10.6559 13.0926 10.5294C11.883 10.447 11.5421 10.7549 11.3496 10.227H13.2906L13.505 9.8916L11.1077 9.88061L10.9977 9.60018L13.582 9.58919C13.7305 9.50671 13.7305 9.41323 13.769 9.24278L11.3221 9.23728C10.8822 9.24278 10.8547 9.34175 10.7723 8.94036H13.8514L13.9504 8.59945L13.0486 8.58845L13.0047 8.81939L12.4878 8.7974L12.8122 6.87841L13.3016 6.94439C13.3016 6.95539 13.3126 6.99388 13.3126 7.01037C13.3126 7.02137 13.3181 7.03787 13.3181 7.04336L13.3456 7.14234C13.483 6.97738 13.571 6.85641 13.8899 6.86741L13.725 7.31279C13.6315 7.43376 13.3566 7.2963 13.2411 7.62621L13.78 7.6482C13.8404 7.3018 13.9064 7.19732 14.0054 6.9169L14.0109 6.75194L10.6403 6.75744L10.6293 6.87841C10.8107 6.87841 10.8052 6.84542 10.9097 6.93339L10.8602 7.25781C10.5193 7.34029 10.5303 7.13684 10.4973 7.58222C10.5468 7.6647 10.4863 7.62071 10.5908 7.6482L10.8052 7.6537C11.1517 6.5265 12.1854 6.77394 12.4218 7.12584C12.5483 7.31279 12.6747 7.92863 12.3613 7.97812L11.3111 7.98911C11.3606 8.54446 11.9984 8.429 12.4108 8.29153C12.3943 8.52247 12.4108 8.70942 12.1964 8.7864C12.0259 8.84688 11.6685 8.83039 11.4816 8.7864C11.0197 8.68193 10.8217 8.45099 10.7888 7.95062L10.5908 7.94512C10.4094 7.86265 10.5523 7.94512 10.4588 7.71968C10.3819 8.18156 10.1729 8.47848 10.7448 8.4125C10.7118 8.68743 10.7503 8.7809 10.4478 8.81389C9.56808 8.91836 9.854 8.33002 9.99696 7.54373C10.2224 6.29007 10.0464 6.44402 10.6843 6.45502L13.9614 6.46052L13.8954 6.11961L10.7283 6.10861L10.7888 5.83369L13.7855 5.81719C13.7085 5.34982 13.692 5.46529 12.6033 5.46529H10.9427C11.0582 5.06389 10.9977 5.17386 12.0754 5.17386H13.5325L13.3786 4.82746L11.2671 4.82196L11.4101 4.53603L13.1751 4.52504C12.9497 4.06316 12.9607 4.19512 11.7125 4.17313C11.872 3.77724 12.1524 3.87621 12.6418 3.87621C12.5043 3.65627 12.4053 3.67276 12.3228 3.48581C12.1194 3.38134 11.9379 3.19439 11.7345 3.05143C10.1784 1.95172 8.06698 1.83625 6.37343 2.66103C4.85033 3.39784 3.35473 5.10238 3.37123 7.46125C3.39322 10.8319 6.35143 13.2897 9.70004 12.7179C11.2726 12.4484 11.6685 11.8106 12.3173 11.4532L12.3228 11.4587Z" fill="#E41D2C"/>
<path fill-rule="evenodd" clip-rule="evenodd" d="M15.9132 6.9282C17.6178 6.58179 17.3373 7.42306 17.1999 8.10488C17.1559 8.30833 17.1559 8.70972 16.9964 8.81969C16.9579 8.81969 16.7325 8.82519 16.7105 8.81419C16.5566 8.75371 16.628 8.93516 16.606 8.65473C16.1442 8.91866 15.4129 8.97915 15.5008 8.24234C15.5723 7.654 16.1662 7.56053 16.771 7.58802C16.749 7.15364 16.3531 7.22512 15.8033 7.36258L15.9187 6.9282H15.9132ZM17.5958 6.87871L18.0522 6.88421C18.0577 6.8952 18.0632 6.9117 18.0632 6.9227L18.1346 7.12614C18.2171 6.99968 18.3711 6.88971 18.613 6.88421L18.547 7.2746L18.3216 7.36258C17.8707 7.51104 17.8982 8.07739 17.7772 8.81969H17.2659L17.5958 6.87871ZM20.0206 6.46082H20.488L20.0866 8.82519C19.5643 8.83069 19.6907 8.85818 19.5258 8.66023C19.1849 9.1661 18.1621 8.69872 18.4755 7.654C18.7065 6.87321 19.4873 6.66427 19.8722 7.12614L20.0261 6.45532L20.0206 6.46082ZM12.3282 3.49161C12.4107 3.67856 12.5151 3.66207 12.6471 3.88201C12.1577 3.88201 11.8773 3.77754 11.7178 4.17893C12.966 4.20092 12.955 4.06896 13.1805 4.53083L11.4154 4.54183L11.2725 4.82776L13.3839 4.83325L13.5379 5.17966H12.0807C11.0085 5.17966 11.0635 5.07519 10.948 5.47108H12.6086C13.6973 5.47108 13.7138 5.35561 13.7908 5.82299L10.7941 5.83949L10.7336 6.11441L13.9008 6.12541L13.9667 6.46632L10.6896 6.46082L10.6456 6.76874L14.0162 6.76324L14.0107 6.9282C14.2637 6.68626 14.2197 6.55979 14.6926 6.42233C15.0829 6.31236 15.3304 6.39484 15.7153 6.47732L15.6328 6.98318C14.973 6.78523 14.5441 6.83472 14.3901 7.51654C14.2197 8.24784 14.797 8.52277 15.4074 8.23135C15.3524 8.76471 15.2644 8.89667 14.6376 8.81419C14.2032 8.75921 14.0712 8.55026 13.8788 8.29183H13.0925L13.0485 8.59425L13.9502 8.60525L13.8513 8.94616H10.7721C10.8546 9.34755 10.8821 9.24858 11.3219 9.24308L13.7688 9.24858C13.7248 9.41353 13.7303 9.51251 13.5818 9.59498L10.9975 9.60598L11.1075 9.88641L13.5049 9.8974L13.2904 10.2328H11.3494C11.5419 10.7552 11.8828 10.4528 13.0925 10.5352C13.0375 10.6617 12.9275 10.7662 12.8615 10.8761L11.8003 10.8871C12.0038 11.2555 12.0917 11.1291 12.5536 11.1896L12.3227 11.4645C13.109 12.0418 13.7193 12.5257 14.9895 12.7456C16.1442 12.9436 17.3483 12.7236 18.2776 12.2673C22.3025 10.2823 22.1925 4.56383 18.2446 2.67233C16.826 1.99601 14.9455 1.93553 13.4774 2.70532C12.7681 3.07372 12.5976 3.33765 12.3337 3.49711L12.3282 3.49161Z" fill="#F8B02B"/>
<path fill-rule="evenodd" clip-rule="evenodd" d="M3.87695 8.80858L4.37182 8.81407L4.65774 7.09853C4.74572 7.31847 4.77321 8.47866 4.78971 8.80858L5.35606 8.82507L6.05437 7.12053L5.79594 8.81407L6.26882 8.81957L6.7032 6.4607C5.73546 6.4497 5.83993 6.36723 5.68597 6.74663L5.22959 7.80234L5.14162 6.4827L4.30034 6.4552L3.87695 8.80858ZM19.1959 8.37419C18.7835 7.9508 19.1354 7.24699 19.5203 7.34047C19.8997 7.43394 19.8282 8.36319 19.1959 8.37419ZM19.8667 7.12602C19.4818 6.66415 18.7065 6.87309 18.4701 7.65388C18.1566 8.69311 19.1794 9.16598 19.5203 8.66011C19.6852 8.85806 19.5588 8.82507 20.0811 8.82507L20.4825 6.4607H20.0152L19.8612 7.13152L19.8667 7.12602ZM16.0892 8.37969C16.0122 8.01129 16.3531 7.86833 16.6775 7.93431C16.694 8.30821 16.4301 8.51165 16.0892 8.37969ZM15.9132 6.93358L15.7978 7.36796C16.3476 7.23599 16.749 7.16451 16.7655 7.5934C16.1607 7.56591 15.5668 7.65938 15.4954 8.24772C15.4019 8.98453 16.1387 8.92404 16.6006 8.66011C16.6226 8.94054 16.5511 8.75909 16.705 8.81957C16.727 8.83057 16.9525 8.82507 16.991 8.82507C17.1559 8.7206 17.1559 8.31371 17.1944 8.11026C17.3374 7.42294 17.6123 6.58717 15.9077 6.93358H15.9132ZM7.70943 7.91781C7.72043 8.10476 7.68744 8.24772 7.56647 8.3412C7.48399 8.40168 7.23656 8.47316 7.13758 8.37969C6.82967 8.09926 7.40701 7.91231 7.70393 7.91781H7.70943ZM6.83516 7.35696C7.25305 7.25799 7.79191 7.14252 7.80291 7.57141C7.17057 7.67038 6.58773 7.5824 6.52725 8.25322C6.46126 8.92954 7.25855 8.98453 7.63795 8.64912C7.69843 8.91855 7.62695 8.7151 7.71493 8.82507L8.10533 8.81957C8.15481 8.50616 8.40774 7.46143 8.31977 7.2085C8.16581 6.76862 7.35203 6.8236 6.94513 6.95007L6.84066 7.36246L6.83516 7.35696ZM11.3934 7.63189C11.4649 7.35146 11.5859 7.23599 11.9103 7.27998C12.0258 7.44494 12.0258 7.39545 12.0478 7.63189H11.3934ZM10.8106 7.65938L10.7886 7.9563C10.8216 8.45667 11.025 8.68211 11.4814 8.79208C11.6684 8.83607 12.0258 8.85256 12.1962 8.79208C12.4107 8.7206 12.3942 8.52815 12.4107 8.29721C11.9983 8.43467 11.3605 8.55014 11.311 7.99479L12.3612 7.9838C12.6746 7.93431 12.5481 7.32397 12.4217 7.13152C12.1852 6.77962 11.1515 6.53218 10.8051 7.65938H10.8106ZM14.0108 6.92808C13.9118 7.2085 13.8458 7.31297 13.7853 7.65938V7.9618L13.8788 8.29721C14.0712 8.55564 14.2032 8.76459 14.6376 8.81957C15.2644 8.90205 15.3524 8.77009 15.4074 8.23673C14.7915 8.52815 14.2197 8.25322 14.3901 7.52192C14.5496 6.8346 14.9785 6.79061 15.6328 6.98856L15.7153 6.4827C15.3304 6.40572 15.083 6.32324 14.6926 6.42771C14.2197 6.55968 14.2637 6.69164 14.0108 6.93358V6.92808ZM9.84836 6.88959C9.3095 6.8456 8.65518 6.77412 8.50672 7.25799C8.23179 8.14875 9.21053 7.78585 9.15005 8.3412C8.86962 8.49516 8.69367 8.42368 8.33626 8.3522L8.26478 8.74809C9.53494 9.21547 10.1013 8.13226 9.57343 7.77485C9.29301 7.5879 9.08956 7.74736 9.05107 7.35146C9.36449 7.2085 9.41398 7.29098 9.77688 7.29098L9.85386 6.88959H9.84836Z" fill="#FEFEFE"/>
<path fill-rule="evenodd" clip-rule="evenodd" d="M10.4643 7.72539L10.5028 7.59343C10.5358 7.14805 10.5248 7.35149 10.8657 7.26901L10.9152 6.9446C10.8107 6.85662 10.8162 6.88961 10.6347 6.88961L10.6457 6.76865L10.6897 6.46073C10.0519 6.44973 10.2278 6.29577 10.0024 7.54944C9.85944 8.33573 9.57352 8.92407 10.4533 8.8196C10.7502 8.78661 10.7172 8.69313 10.7502 8.41821C10.1839 8.48419 10.3928 8.18727 10.4643 7.72539ZM13.0486 8.59966L13.0926 8.29724L13.1476 7.96733L13.2465 7.63742C13.3675 7.3075 13.6424 7.44497 13.7304 7.324L13.8954 6.87862C13.571 6.86762 13.483 6.98859 13.351 7.15354L13.3235 7.05457C13.3235 7.04907 13.318 7.03258 13.318 7.02158C13.318 7.01058 13.307 6.96659 13.307 6.9556L12.8177 6.88961L12.4932 8.8086L13.0101 8.8306L13.0541 8.59966H13.0486ZM17.266 8.8196H17.7773C17.8983 8.0773 17.8708 7.51095 18.3217 7.36249L18.5471 7.27451L18.6131 6.88412C18.3712 6.88961 18.2172 6.99959 18.1347 7.12605L18.0633 6.92261C18.0578 6.91161 18.0578 6.89511 18.0523 6.88412L17.5959 6.87862L17.266 8.8196Z" fill="#FEFEFE"/>
<path fill-rule="evenodd" clip-rule="evenodd" d="M19.196 8.37421C19.8338 8.36321 19.9053 7.43396 19.5204 7.34048C19.13 7.24701 18.7836 7.95082 19.196 8.37421Z" fill="#F8B02B"/>
<path fill-rule="evenodd" clip-rule="evenodd" d="M7.70949 7.91858C7.41257 7.91308 6.83522 8.10003 7.14314 8.38045C7.24212 8.46843 7.48955 8.39695 7.57203 8.34196C7.693 8.25399 7.72049 8.10553 7.71499 7.91858H7.70949ZM13.0926 8.29248L13.8788 8.29797L13.7854 7.96256H13.1475L13.0926 8.29248Z" fill="#E41D2C"/>
<path fill-rule="evenodd" clip-rule="evenodd" d="M16.0892 8.37964C16.4356 8.5061 16.6941 8.30816 16.6776 7.93426C16.3477 7.87377 16.0123 8.01673 16.0892 8.37964ZM13.1475 7.96175H13.7854V7.65933L13.2465 7.63184L13.1475 7.96175Z" fill="#F8B02B"/>
<path fill-rule="evenodd" clip-rule="evenodd" d="M11.3934 7.63248H12.0478C12.0313 7.40154 12.0258 7.44553 11.9103 7.28057C11.5859 7.23658 11.4649 7.35205 11.3934 7.63248Z" fill="#E41D2C"/>
<path fill-rule="evenodd" clip-rule="evenodd" d="M10.4642 7.72535C10.5577 7.95079 10.4147 7.86832 10.5962 7.95079L10.7941 7.95629L10.8161 7.65937L10.6017 7.65387C10.4917 7.63188 10.5522 7.67037 10.5082 7.58789L10.4697 7.71986L10.4642 7.72535Z" fill="#F8B02B"/>
<defs>
<linearGradient id="paint0_linear_306_10" x1="12.3088" y1="0.00208944" x2="12.3088" y2="15.0032" gradientUnits="userSpaceOnUse">
<stop stop-color="#1D4C80"/>
<stop offset="1" stop-color="#173A63"/>
</linearGradient>
</defs>
</svg>
