<svg width="37" height="10" viewBox="0 0 37 10" fill="none" xmlns="http://www.w3.org/2000/svg">
<path fill-rule="evenodd" clip-rule="evenodd" d="M28.2801 1.76485C27.3978 1.76485 26.6919 2.00014 26.1037 2.11779L25.9272 3.47071C26.2213 3.35307 27.0449 3.11778 27.7507 3.05895C28.4566 3.05895 28.8684 3.1766 28.7507 3.82365C26.6331 3.82365 25.2214 4.23541 24.9272 5.64716C24.5155 8.00007 27.1037 8.05889 28.1037 7.00008L27.986 7.64713H29.8684L30.6919 3.82365C30.986 2.23543 29.5742 1.70603 28.2801 1.76485ZM28.3978 5.70598C28.2801 6.17656 27.8684 6.35303 27.3978 6.41185C26.986 6.41185 26.6331 6.17656 26.8684 5.70598C27.1037 5.35304 27.6331 5.35304 28.0448 5.35304H28.5154C28.4566 5.29422 28.3978 5.52951 28.3978 5.70598Z" fill="#32A6CE"/>
<path fill-rule="evenodd" clip-rule="evenodd" d="M25.9272 3.47077C26.2213 3.35312 27.0449 3.11783 27.7507 3.05901C28.4566 3.05901 28.8684 3.17665 28.7507 3.82371C26.6331 3.82371 25.2214 4.23546 24.9272 5.64721C24.5155 8.00012 27.1037 8.05895 28.1037 7.00014L27.986 7.64719H29.8684L30.6919 3.82371C31.0448 2.23549 29.5742 1.82373 28.2801 1.82373L25.9272 3.47077ZM28.3978 5.70603C28.2801 6.17662 27.8684 6.35309 27.3978 6.41191C26.986 6.41191 26.6331 6.17662 26.8684 5.70603C27.1037 5.3531 27.6331 5.3531 28.0448 5.3531H28.5154C28.4566 5.29427 28.3978 5.52957 28.3978 5.70603Z" fill="#1A80AD"/>
<path fill-rule="evenodd" clip-rule="evenodd" d="M32.2802 0L30.7508 7.64696H32.6331L34.2213 0H32.2802Z" fill="#32A6CE"/>
<path fill-rule="evenodd" clip-rule="evenodd" d="M33.6331 0L30.7508 7.64696H32.6331L34.2213 0H32.2802H33.6331Z" fill="#1A80AD"/>
<path fill-rule="evenodd" clip-rule="evenodd" d="M23.5155 0H20.045L18.5156 7.64696H20.5744L21.1038 5.29405H22.5743C23.9861 5.29405 25.1625 4.47053 25.4567 2.99996C25.7508 1.2941 24.5155 0 23.5155 0ZM23.4567 2.64703C23.339 3.17643 22.8096 3.52937 22.2802 3.52937H21.3391L21.7508 1.76468H22.7508C23.2802 1.76468 23.5743 2.11762 23.4567 2.64703Z" fill="#32A6CE"/>
<path fill-rule="evenodd" clip-rule="evenodd" d="M23.5155 0H21.1626L18.4568 7.64696H20.5156L21.045 5.29405H22.5156C23.9273 5.29405 25.1038 4.47053 25.3979 2.99996C25.7508 1.2941 24.5155 0 23.5155 0ZM23.4567 2.64703C23.3391 3.17643 22.8097 3.52937 22.2803 3.52937H21.3391L21.7509 1.76468H22.7509C23.2803 1.76468 23.5744 2.11762 23.4567 2.64703Z" fill="#1A80AD"/>
<path fill-rule="evenodd" clip-rule="evenodd" d="M9.92744 1.76485C9.04509 1.76485 8.33922 2.00014 7.80982 2.11779L7.63335 3.47071C7.86864 3.35307 8.75098 3.11778 9.45686 3.05895C10.1627 3.05895 10.5745 3.1766 10.4568 3.82365C8.39804 3.82365 6.9863 4.23541 6.69218 5.64716C6.28042 8.00007 8.8098 8.05889 9.80979 7.00008L9.69215 7.64713H11.5745L12.398 3.82365C12.6921 2.23543 11.2215 1.70603 9.92744 1.76485ZM10.1039 5.70598C9.98626 6.17656 9.5745 6.35303 9.10392 6.41185C8.69216 6.41185 8.33922 6.17656 8.63334 5.70598C8.86863 5.35304 9.39803 5.35304 9.75097 5.35304H10.2216C10.1627 5.29422 10.1039 5.52951 10.1039 5.70598Z" fill="#21789E"/>
<path fill-rule="evenodd" clip-rule="evenodd" d="M7.69219 3.47077C7.92748 3.35312 8.80982 3.11783 9.51569 3.05901C10.2216 3.05901 10.6333 3.17665 10.5157 3.82371C8.45688 3.82371 7.04514 4.23546 6.75102 5.64721C6.33926 8.00012 8.86864 8.05895 9.86863 7.00014L9.69216 7.64719H11.5745L12.398 3.82371C12.7509 2.23549 11.2804 1.82373 9.98627 1.82373L7.69219 3.47077ZM10.1039 5.70603C9.98628 6.17662 9.57452 6.35309 9.10393 6.41191C8.69217 6.41191 8.33924 6.17662 8.63335 5.70603C8.86864 5.3531 9.39805 5.3531 9.75098 5.3531H10.2216C10.1627 5.29427 10.1039 5.52957 10.1039 5.70603Z" fill="#1A5B80"/>
<path fill-rule="evenodd" clip-rule="evenodd" d="M13.1627 1.76465H15.045L15.3391 5.05872L17.2215 1.76465H19.1626L14.6921 9.99984H12.5745L13.9274 7.52928L13.1627 1.76465Z" fill="#21789E"/>
<path fill-rule="evenodd" clip-rule="evenodd" d="M15.045 1.88229L15.3391 5.11755L17.2215 1.76465H19.1626L14.6921 9.99984H12.5745L13.9274 7.58811" fill="#1A5B80"/>
<path fill-rule="evenodd" clip-rule="evenodd" d="M5.28044 0H1.75107L0.22168 7.64696H2.28048L2.80988 5.29405H4.28045C5.6922 5.29405 6.86866 4.47053 7.16277 2.99996C7.51571 1.2941 6.28043 0 5.28044 0ZM5.22162 2.64703C5.10397 3.17643 4.57457 3.52937 4.04516 3.52937H3.104L3.51576 1.76468H4.51574C5.04515 1.76468 5.33926 2.11762 5.22162 2.64703Z" fill="#21789E"/>
<path fill-rule="evenodd" clip-rule="evenodd" d="M5.28044 0H3.69222L0.22168 7.64696H2.28048L2.80988 5.29405H4.28045C5.6922 5.29405 6.86866 4.47053 7.16277 2.99996C7.51571 1.2941 6.28043 0 5.28044 0ZM5.22162 2.64703C5.10397 3.17643 4.57457 3.52937 4.04516 3.52937H3.104L3.51576 1.76468H4.51574C5.04515 1.76468 5.33926 2.11762 5.22162 2.64703Z" fill="#1A5B80"/>
<path fill-rule="evenodd" clip-rule="evenodd" d="M9.57449 3.82345C7.98627 3.94109 6.92746 4.41167 6.69217 5.58813C6.28041 7.94104 8.80979 7.99986 9.80978 6.94105L9.69213 7.64693H11.5745L11.8686 6.23518L9.57449 3.82345ZM10.1039 5.70578C9.98625 6.17636 9.57449 6.35283 9.10391 6.41165C8.69215 6.41165 8.33921 6.17636 8.63332 5.70578C8.86862 5.35284 9.39802 5.35284 9.75096 5.35284H10.2215C10.1627 5.29402 10.1039 5.52931 10.1039 5.70578ZM15.4568 4.9999L15.3391 5.17637L16.5744 6.35283L19.1626 1.76465H17.2215L15.4568 4.9999ZM2.28046 7.64693L2.80987 5.29402L0.398132 7.64693H2.28046Z" fill="#06435E"/>
<path fill-rule="evenodd" clip-rule="evenodd" d="M20.5155 7.64697L21.0449 5.17641V5.23523L18.6332 7.64697H20.5155ZM27.8684 3.82349C26.2801 3.94113 25.2213 4.41171 24.986 5.58817C24.5743 7.94108 27.1625 7.9999 28.1625 6.94109L27.986 7.64697H29.8683L30.1624 6.23522L27.8684 3.82349ZM28.3978 5.70582C28.2801 6.1764 27.8684 6.35287 27.3978 6.41169C26.986 6.41169 26.6331 6.1764 26.8684 5.70582C27.1037 5.35288 27.6331 5.35288 28.0448 5.35288H28.5154C28.4566 5.29406 28.3978 5.52935 28.3978 5.70582ZM32.1036 4.17642L30.7507 7.64697H32.633L33.1624 5.29406L32.1036 4.17642Z" fill="#2273AA"/>
<path d="M34.633 1.2351V0.411576H34.3389V0.29393H35.1036V0.411576H34.8095V1.2351H34.633ZM35.2213 1.2351V0.29393H35.3977L35.633 0.940981C35.633 0.999804 35.6919 1.05863 35.6919 1.05863C35.6919 0.999803 35.6919 0.999804 35.7507 0.882158L35.986 0.235107H36.1624V1.17627H36.0448V0.352753L35.7507 1.17627H35.5742L35.2801 0.352753V1.17627H35.2213V1.2351Z" fill="#32A6CE"/>
</svg>
