<svg width="30" height="10" viewBox="0 0 30 10" fill="none" xmlns="http://www.w3.org/2000/svg">
<path d="M23.4327 0.947849L25.8023 0.521317V9.71545H23.4327V0.947849ZM27.2241 0.947849V9.71545H29.5937V0.521317L27.2241 0.947849ZM20.1152 9.71545H22.4848V3.08051H20.1152V9.71545ZM3.907 3.98097C3.57525 3.98097 2.86437 3.93357 2.86437 3.27008C2.86437 2.5118 3.907 2.5118 4.28614 2.5118C4.94963 2.5118 5.85009 2.70137 6.46619 2.89094L7.17708 3.1279H7.27186V0.995242L7.17708 0.947849C6.4188 0.710887 5.51834 0.426532 3.95439 0.426532C1.20563 0.521317 0.210388 2.13266 0.210388 3.50704C0.210388 4.31271 0.542135 6.16102 3.71743 6.39798C4.00178 6.39798 4.71267 6.44537 4.71267 7.10887C4.71267 7.67758 4.04918 7.96193 3.05394 7.96193C1.96391 7.96193 1.15824 7.67758 0.210388 7.44061V9.62067C1.15824 9.85763 2.29566 9.99981 3.57525 9.99981C6.27662 9.99981 7.50883 8.48325 7.50883 6.96669C7.50883 5.26056 6.18184 4.17054 3.907 3.98097ZM18.6461 2.93833C16.3712 2.98572 15.376 4.02836 15.376 6.01884V9.71545H17.7456V6.72973C17.7456 5.54492 17.7456 5.0236 19.1674 4.97621V2.98572C19.1674 2.89094 18.6461 2.93833 18.6461 2.93833ZM12.0585 3.08051C12.0111 3.08051 11.5846 4.26532 10.6367 5.40274V0.521317L8.2671 1.04263V9.71545H10.6367V7.15626C11.5846 8.24628 11.7741 9.71545 11.7741 9.71545H14.8073C14.5229 8.7676 13.1959 6.30319 13.1959 6.30319C14.3807 4.83403 14.902 3.08051 14.9494 3.08051H12.0585ZM21.3 2.36962C21.9635 2.36962 22.4848 1.84831 22.4848 1.18481C22.4848 0.521317 21.9635 0 21.3 0C20.6365 0 20.1152 0.521317 20.1152 1.18481C20.1152 1.84831 20.6365 2.36962 21.3 2.36962Z" fill="#B73091"/>
<path d="M24.38 0.758279L25.8017 0.521317V9.71545H23.4321L24.38 0.758279ZM28.0766 0.805672L27.2235 9.71545H29.5931V0.521317L28.0766 0.805672ZM20.1146 9.71545H22.4843V3.08051H21.489L20.1146 9.71545ZM0.209807 3.50704C0.209807 4.31271 0.541554 6.16102 3.66946 6.39798C3.95381 6.39798 5.09123 6.44537 5.09123 7.10887C5.09123 7.67758 3.95381 7.96193 3.00596 7.96193C1.91594 7.96193 1.11026 7.67758 0.162415 7.44061V9.62067C1.11026 9.85763 2.24768 9.99981 3.52728 9.99981C6.22865 9.99981 7.46085 8.48325 7.46085 6.96669C7.46085 5.26056 6.13386 4.17054 3.85903 3.98097C3.52728 3.98097 2.86378 3.93357 2.86378 3.27008C2.86378 2.5118 3.90642 2.5118 4.28556 2.5118C4.94905 2.5118 5.84951 2.70137 6.46561 2.89094L7.1765 3.1279H7.27128V0.995242L7.1765 0.947849C6.41822 0.710887 5.51776 0.426532 3.95381 0.426532L0.209807 3.50704ZM15.3754 5.92406V9.71545H17.745V6.72973C17.745 5.54492 17.745 5.0236 19.1668 4.97621V2.98572C19.1668 2.93833 18.6455 2.93833 18.6455 2.93833L15.3754 5.92406ZM8.26652 9.71545H10.6361V7.15626C11.584 8.24628 12.674 9.71545 12.674 9.71545H14.7593C14.4749 8.7676 13.1479 6.30319 13.1479 6.30319C14.3328 4.83403 14.8541 3.08051 14.9015 3.08051H13.4797C13.4323 3.08051 11.584 4.26532 10.6361 5.40274V0.710887L8.26652 9.71545ZM21.2994 2.36962C21.9629 2.36962 22.4843 1.84831 22.4843 1.18481C22.4843 0.521317 21.9629 0 21.2994 0" fill="#862165"/>
</svg>
