<?xml version="1.0" encoding="utf-8"?><svg viewBox="0 0 21 20" xmlns="http://www.w3.org/2000/svg" xmlns:xlink="http://www.w3.org/1999/xlink"><style>:root>svg{display:none}:root>svg:target{display:block}</style><svg viewBox="0 0 9 16" id="facebook" xmlns="http://www.w3.org/2000/svg"><path d="M7.729 8.8l.416-2.714H5.541V4.324c0-.742.363-1.466 1.53-1.466h1.184V.546S7.181.363 6.153.363c-2.145 0-3.547 1.3-3.547 3.654v2.07H.222V8.8h2.384v6.562h2.935V8.801h2.188z"/></svg><svg viewBox="0 0 18 15" id="gift" xmlns="http://www.w3.org/2000/svg"><path d="M11.274 0a3.158 3.158 0 012.735 4.738l3.581-.001v1.579h-1.579v7.894a.79.79 0 01-.79.79H2.592a.79.79 0 01-.79-.79V6.316H.22v-1.58l3.582.002A3.158 3.158 0 018.906 1.07 3.144 3.144 0 0111.274 0zM9.695 6.316H8.116v7.894h1.58V6.316zM6.537 1.579a1.579 1.579 0 00-.118 3.154l.118.004h1.58v-1.58a1.579 1.579 0 00-1.34-1.56l-.122-.014-.118-.004zm4.737 0A1.579 1.579 0 009.7 3.039l-.004.119v1.579h1.58a1.579 1.579 0 001.574-1.46l.004-.12a1.579 1.579 0 00-1.579-1.578z"/></svg><svg viewBox="0 0 16 16" id="instagram" xmlns="http://www.w3.org/2000/svg"><path fill-rule="evenodd" clip-rule="evenodd" d="M5.115.408c.8-.037 1.054-.045 3.092-.045 2.037 0 2.292.01 3.091.045.8.036 1.345.164 1.822.349.5.189.953.484 1.328.866.382.374.676.827.865 1.327.185.477.312 1.023.349 1.82.037.802.045 1.057.045 3.093 0 2.038-.01 2.293-.045 3.092-.036.798-.164 1.344-.35 1.82a3.68 3.68 0 01-.864 1.33 3.677 3.677 0 01-1.328.864c-.477.186-1.023.313-1.82.35-.801.036-1.056.044-3.093.044-2.038 0-2.293-.009-3.092-.045-.798-.036-1.343-.163-1.82-.349a3.679 3.679 0 01-1.33-.864 3.676 3.676 0 01-.865-1.329C.915 12.3.79 11.755.752 10.957.715 10.155.707 9.9.707 7.863s.009-2.292.045-3.091c.036-.8.163-1.345.348-1.822.189-.5.484-.954.866-1.328A3.676 3.676 0 013.294.757C3.77.572 4.316.445 5.114.408zm6.122 1.35c-.79-.036-1.028-.043-3.03-.043-2.003 0-2.24.007-3.03.043-.733.034-1.13.156-1.394.259-.35.136-.6.298-.862.56-.25.242-.44.537-.56.863-.104.264-.226.661-.26 1.393-.035.79-.043 1.028-.043 3.03 0 2.003.008 2.24.044 3.031.033.732.155 1.128.258 1.393.12.325.312.62.56.862.243.25.538.44.863.56.265.104.661.226 1.393.26.791.035 1.028.043 3.03.043 2.004 0 2.24-.008 3.031-.044.732-.033 1.129-.155 1.393-.258.35-.137.6-.298.863-.56.249-.243.44-.538.56-.863.103-.265.225-.661.259-1.393.036-.79.043-1.028.043-3.03 0-2.003-.007-2.24-.043-3.031-.034-.732-.156-1.129-.259-1.393-.136-.35-.298-.6-.56-.863a2.327 2.327 0 00-.863-.56c-.264-.103-.661-.225-1.393-.259zM7.25 10.175a2.502 2.502 0 101.8-4.667 2.502 2.502 0 00-1.8 4.667zM5.48 5.137a3.855 3.855 0 115.452 5.452A3.855 3.855 0 015.48 5.137zm7.436-.555a.911.911 0 10-1.251-1.325.911.911 0 001.25 1.325z"/></svg><svg viewBox="0 0 9 13" id="left-arrow" xmlns="http://www.w3.org/2000/svg"><path d="M3.272 6.364l4.95-4.95L6.808 0 .444 6.364l6.364 6.364 1.414-1.414-4.95-4.95z"/></svg><svg viewBox="0 0 16 16" id="linkedin" xmlns="http://www.w3.org/2000/svg"><path fill-rule="evenodd" clip-rule="evenodd" d="M.707 1.616A1.253 1.253 0 011.96.363h12.492a1.252 1.252 0 011.255 1.253V14.11a1.256 1.256 0 01-1.254 1.254H1.96A1.254 1.254 0 01.707 14.11V1.616zm5.937 4.466h2.031v1.02c.293-.586 1.043-1.114 2.17-1.114 2.161 0 2.673 1.168 2.673 3.311v3.97h-2.187V9.787c0-1.22-.293-1.909-1.037-1.909-1.033 0-1.463.743-1.463 1.91v3.48H6.644V6.083zm-3.75 7.093h2.187V5.988H2.894v7.187zm2.5-9.53a1.407 1.407 0 11-2.812.061 1.407 1.407 0 012.812-.062z"/></svg><svg viewBox="0 0 19 15" id="payment" xmlns="http://www.w3.org/2000/svg"><path d="M18.222 5.833v8.334a.803.803 0 01-.264.589.938.938 0 01-.636.244h-16.2a.938.938 0 01-.637-.244.803.803 0 01-.263-.59V5.834h18zm0-1.666h-18V.833C.222.613.317.4.485.244A.938.938 0 011.122 0h16.2a.94.94 0 01.636.244.803.803 0 01.264.59v3.333zm-6.3 6.666V12.5h3.6v-1.667h-3.6z"/></svg><svg viewBox="0 0 16 15" id="product-icon-link" xmlns="http://www.w3.org/2000/svg"><path d="M3.271 6.201l-1.859 1.86a4.065 4.065 0 105.75 5.748l2.476-2.478a4.065 4.065 0 00-1.122-6.542l-.794.794c-.08.081-.15.172-.208.27a2.71 2.71 0 011.166 4.521l-2.475 2.477A2.711 2.711 0 012.37 9.017l1.075-1.073A5.444 5.444 0 013.27 6.2z"/><path d="M5.806 3.668a4.065 4.065 0 001.122 6.541l1.05-1.051a2.71 2.71 0 01-1.214-4.534L9.24 2.147a2.712 2.712 0 013.834 3.835L12 7.055c.152.569.21 1.158.173 1.744l1.86-1.86a4.065 4.065 0 00-5.75-5.748L5.806 3.668z"/></svg><svg viewBox="0 0 24 24" id="product-icon-love" xmlns="http://www.w3.org/2000/svg"><path d="M12.77 6.705C9.537 2.019 4 3.902 4 8.683 4 13.463 13.23 20 13.23 20S22 13.2 22 8.683c0-4.518-5.077-6.664-8.308-1.978l-.461.374-.462-.374z"/></svg><svg viewBox="0 0 8 13" id="right-arrow" xmlns="http://www.w3.org/2000/svg"><path d="M5.172 6.364l-4.95-4.95L1.636 0 8 6.364l-6.364 6.364-1.414-1.414 4.95-4.95z"/></svg><svg viewBox="0 0 256 256" id="sale-copy-icon" xmlns="http://www.w3.org/2000/svg"><path d="M48.186 92.137c0-8.392 6.49-14.89 16.264-14.89s29.827-.225 29.827-.225-.306-6.99-.306-15.88c0-8.888 7.954-14.96 17.49-14.96 9.538 0 56.786.401 61.422.401 4.636 0 8.397 1.719 13.594 5.67 5.196 3.953 13.052 10.56 16.942 14.962 3.89 4.402 5.532 6.972 5.532 10.604 0 3.633 0 76.856-.06 85.34-.059 8.485-7.877 14.757-17.134 14.881-9.257.124-29.135.124-29.135.124s.466 6.275.466 15.15-8.106 15.811-17.317 16.056c-9.21.245-71.944-.49-80.884-.245-8.94.245-16.975-6.794-16.975-15.422s.274-93.175.274-101.566zm16.734 3.946l-1.152 92.853a3.96 3.96 0 003.958 4.012l73.913.22a3.865 3.865 0 003.91-3.978l-.218-8.892a1.988 1.988 0 00-2.046-1.953s-21.866.64-31.767.293c-9.902-.348-16.672-6.807-16.675-15.516-.003-8.709.003-69.142.003-69.142a1.989 1.989 0 00-2.007-1.993l-23.871.082a4.077 4.077 0 00-4.048 4.014zm106.508-35.258c-1.666-1.45-3.016-.84-3.016 1.372v17.255c0 1.106.894 2.007 1.997 2.013l20.868.101c2.204.011 2.641-1.156.976-2.606l-20.825-18.135zm-57.606.847a2.002 2.002 0 00-2.02 1.988l-.626 96.291a2.968 2.968 0 002.978 2.997l75.2-.186a2.054 2.054 0 002.044-2.012l1.268-62.421a1.951 1.951 0 00-1.96-2.004s-26.172.042-30.783.042c-4.611 0-7.535-2.222-7.535-6.482S152.3 63.92 152.3 63.92a2.033 2.033 0 00-2.015-2.018l-36.464-.23z" fill-rule="evenodd"/></svg><svg viewBox="0 0 21 15" id="shipping" xmlns="http://www.w3.org/2000/svg"><path d="M15.216 2.811h2.811l2.812 3.801v5.57h-1.907a3.28 3.28 0 01-6.495 0H7.686a3.28 3.28 0 01-6.494 0h-.97V.938A.937.937 0 011.159 0h13.12a.937.937 0 01.937.937v1.874zm0 1.875v2.811h3.748V7.23l-1.881-2.544h-1.867z"/></svg><svg viewBox="0 0 24 24" id="star" xmlns="http://www.w3.org/2000/svg"><path fill-rule="evenodd" clip-rule="evenodd" d="M10.853 4.131c.435-1.003 1.859-1.003 2.294 0l1.98 4.566 4.954.472c1.088.103 1.528 1.457.708 2.181l-3.73 3.294 1.082 4.857c.238 1.068-.914 1.904-1.856 1.348L12 18.32l-4.285 2.53c-.942.556-2.094-.28-1.856-1.348l1.082-4.857-3.73-3.294c-.82-.724-.38-2.078.709-2.181l4.953-.472 1.98-4.566zM12 6.514l-1.527 3.52-.234.542-.588.056-3.82.364 2.876 2.54.443.39-.128.576-.835 3.746 3.305-1.951.508-.3.508.3 3.305 1.95-.835-3.745-.128-.576.443-.39 2.876-2.54-3.82-.364-.588-.056-.234-.542L12 6.514z"/></svg><svg viewBox="0 0 16 15" id="support" xmlns="http://www.w3.org/2000/svg"><path d="M.222 15a5.714 5.714 0 1111.428 0H.222zm5.714-6.429A4.285 4.285 0 011.65 4.286 4.285 4.285 0 015.936 0a4.285 4.285 0 014.286 4.286A4.285 4.285 0 015.936 8.57zm7.143 2.858h2.857v1.428h-2.857V11.43zm-2.143-3.572h5v1.429h-5V7.857zm1.428-3.571h3.572v1.428h-3.572V4.286z"/></svg><svg viewBox="0 0 19 16" id="twitter" xmlns="http://www.w3.org/2000/svg"><path d="M18.707 2.143c-.679.3-1.408.503-2.174.595A3.795 3.795 0 0018.197.643a7.557 7.557 0 01-2.403.919 3.787 3.787 0 00-6.451 3.453A10.75 10.75 0 011.54 1.06a3.787 3.787 0 001.172 5.055A3.776 3.776 0 01.997 5.64v.049A3.787 3.787 0 004.034 9.4a3.813 3.813 0 01-1.71.065 3.788 3.788 0 003.537 2.628 7.597 7.597 0 01-5.606 1.568 10.706 10.706 0 005.802 1.701c6.965 0 10.772-5.768 10.772-10.77 0-.163-.004-.327-.012-.49a7.695 7.695 0 001.888-1.958l.002-.002z"/></svg></svg>